<svg width="120" height="120" viewBox="0 0 100 100" fill="none" xmlns="http://www.w3.org/2000/svg">
  <!-- Outer Hexagon -->
  <path d="M50 5L89 27.5V72.5L50 95L11 72.5V27.5L50 5Z" stroke="#00f3ff" stroke-width="2" />
  
  <!-- Inner Circuit Pattern -->
  <circle cx="50" cy="50" r="15" stroke="#0037ff" stroke-width="2" />
  <path d="M50 35V20M50 65V80M35 50H20M65 50H80" stroke="#00f3ff" stroke-width="2" stroke-linecap="round" />
  <path d="M39.4 39.4L28.8 28.8M60.6 60.6L71.2 71.2M39.4 60.6L28.8 71.2M60.6 39.4L71.2 28.8" stroke="#00f3ff" stroke-width="1.5" stroke-linecap="round" />
  
  <!-- "X" Symbol -->
  <path d="M42 42L58 58M58 42L42 58" stroke="#ffffff" stroke-width="4" stroke-linecap="round" />
  
  <!-- Glow Dots -->
  <circle cx="50" cy="20" r="3" fill="#ff5e00" />
  <circle cx="50" cy="80" r="3" fill="#ff5e00" />
  <circle cx="20" cy="50" r="3" fill="#ff5e00" />
  <circle cx="80" cy="50" r="3" fill="#ff5e00" />
</svg>
